<?xml version="1.0" standalone="no"?><!DOCTYPE svg PUBLIC "-//W3C//DTD SVG 1.1//EN" "http://www.w3.org/Graphics/SVG/1.1/DTD/svg11.dtd"><svg t="1520250416084" class="icon" style="" viewBox="0 0 1024 1024" version="1.1" xmlns="http://www.w3.org/2000/svg" p-id="4778" xmlns:xlink="http://www.w3.org/1999/xlink" width="48" height="48"><defs><style type="text/css"></style></defs><path d="M655.036717 314.990021c-12.669554 12.679787-12.446473 33.463136 0.556679 46.455031 12.955056 12.945847 33.786501 13.196557 46.456055 0.515746 12.666484-12.67774 12.400425-33.506115-0.556679-46.455031C688.490643 302.516942 667.702178 302.31228 655.036717 314.990021z" p-id="4779" fill="#ffffff"></path><path d="M510.267543 59.455113c-247.101841 0-447.418123 200.316282-447.418123 447.418123s200.316282 447.418123 447.418123 447.418123S957.685665 753.9761 957.685665 506.873236 757.369384 59.455113 510.267543 59.455113zM687.640276 640.799458c-6.222725 49.362244-27.638477 27.663036-27.638477 27.663036l-67.24759-67.190285c-114.645087 35.017538-135.782499 13.900591-163.514097 19.785625-27.734668 5.888104-16.397459 52.311413-19.579941 104.060007-3.229554 51.706639-21.751397 54.578036-36.629245 36.660968-10.29139-12.346189-23.813359-46.077432-31.203676-65.850777-4.327562-11.118222-10.656711-16.151865-15.131629-18.473747-18.377556-6.743588-57.611116-21.85782-71.194482-33.102932-17.947767-14.880919-15.074324-33.386388 36.629245-36.660968 51.703569-3.269463 98.182137 8.069793 104.043634-19.669992 5.864568-27.734668-15.272845-48.853661 19.643386-163.534564l-67.287499-67.229171c0 0-21.673625-21.35333 27.6395-27.658943 0 0 93.482091-11.680017 117.906363-10.036587 44.391023-38.232766 128.736013-91.224678 223.780693-74.330916 12.224416 2.14485 27.630291 8.075933 36.672224 17.10968l0.044002 0.042979c9.081843 9.076726 14.982226 24.436552 17.184381 36.69883 16.994046 95.012957-35.96819 179.397856-74.140581 223.850278C699.262988 547.328623 687.640276 640.799458 687.640276 640.799458z" p-id="4780" fill="#ffffff"></path></svg>